<svg width="15" height="11" viewBox="0 0 15 11" fill="none" xmlns="http://www.w3.org/2000/svg">
<path d="M5.992 0.242V7.452C5.992 8.25467 5.74467 8.89867 5.25 9.384C4.75533 9.86 4.102 10.098 3.29 10.098C2.46867 10.098 1.81067 9.85533 1.316 9.37C0.821333 8.87533 0.574 8.20333 0.574 7.354H1.848C1.85733 7.83 1.97867 8.21733 2.212 8.516C2.45467 8.81467 2.814 8.964 3.29 8.964C3.766 8.964 4.12067 8.824 4.354 8.544C4.58733 8.25467 4.704 7.89067 4.704 7.452V0.242H5.992ZM11.5958 10.098C10.9518 10.098 10.3732 9.986 9.85983 9.762C9.35583 9.52867 8.95916 9.21133 8.66983 8.81C8.38049 8.39933 8.23116 7.928 8.22183 7.396H9.57983C9.62649 7.85333 9.81316 8.24067 10.1398 8.558C10.4758 8.866 10.9612 9.02 11.5958 9.02C12.2025 9.02 12.6785 8.87067 13.0238 8.572C13.3785 8.264 13.5558 7.872 13.5558 7.396C13.5558 7.02267 13.4532 6.71933 13.2478 6.486C13.0425 6.25267 12.7858 6.07533 12.4778 5.954C12.1698 5.83267 11.7545 5.702 11.2318 5.562C10.5878 5.394 10.0698 5.226 9.67783 5.058C9.29516 4.89 8.96383 4.62867 8.68383 4.274C8.41316 3.91 8.27783 3.42467 8.27783 2.818C8.27783 2.286 8.41316 1.81467 8.68383 1.404C8.95449 0.993333 9.33249 0.675999 9.81783 0.451999C10.3125 0.228 10.8772 0.116 11.5118 0.116C12.4265 0.116 13.1732 0.344666 13.7518 0.802C14.3398 1.25933 14.6712 1.866 14.7458 2.622H13.3458C13.2992 2.24867 13.1032 1.922 12.7578 1.642C12.4125 1.35267 11.9552 1.208 11.3858 1.208C10.8538 1.208 10.4198 1.348 10.0838 1.628C9.74783 1.89867 9.57983 2.28133 9.57983 2.776C9.57983 3.13067 9.67783 3.42 9.87383 3.644C10.0792 3.868 10.3265 4.04067 10.6158 4.162C10.9145 4.274 11.3298 4.40467 11.8618 4.554C12.5058 4.73133 13.0238 4.90867 13.4158 5.086C13.8078 5.254 14.1438 5.52 14.4238 5.884C14.7038 6.23867 14.8438 6.724 14.8438 7.34C14.8438 7.816 14.7178 8.264 14.4658 8.684C14.2138 9.104 13.8405 9.44467 13.3458 9.706C12.8512 9.96733 12.2678 10.098 11.5958 10.098Z" fill="#F8C55B"/>
</svg>
