<svg width="16" height="4" viewBox="0 0 16 4" fill="none" xmlns="http://www.w3.org/2000/svg">
<path d="M14 0.499999C14.2967 0.499999 14.5867 0.587973 14.8334 0.752795C15.08 0.917617 15.2723 1.15188 15.3858 1.42597C15.4994 1.70006 15.5291 2.00166 15.4712 2.29263C15.4133 2.58361 15.2704 2.85088 15.0607 3.06066C14.8509 3.27044 14.5836 3.4133 14.2926 3.47118C14.0017 3.52906 13.7001 3.49935 13.426 3.38582C13.1519 3.27229 12.9176 3.08003 12.7528 2.83335C12.588 2.58668 12.5 2.29667 12.5 2C12.5 1.60217 12.658 1.22064 12.9393 0.939339C13.2206 0.658035 13.6022 0.499999 14 0.499999ZM3.5 2C3.5 1.70333 3.41203 1.41332 3.24721 1.16664C3.08238 0.91997 2.84811 0.727711 2.57403 0.61418C2.29994 0.500648 1.99834 0.470943 1.70737 0.528821C1.41639 0.586699 1.14912 0.72956 0.939341 0.939339C0.729562 1.14912 0.586701 1.41639 0.528823 1.70736C0.470945 1.99834 0.50065 2.29993 0.614181 2.57402C0.727713 2.84811 0.919972 3.08238 1.16665 3.2472C1.41332 3.41203 1.70333 3.5 2 3.5C2.39783 3.5 2.77936 3.34196 3.06066 3.06066C3.34197 2.77935 3.5 2.39782 3.5 2ZM6.5 2C6.5 2.29667 6.58797 2.58668 6.7528 2.83335C6.91762 3.08003 7.15189 3.27229 7.42598 3.38582C7.70007 3.49935 8.00166 3.52906 8.29264 3.47118C8.58361 3.4133 8.85088 3.27044 9.06066 3.06066C9.27044 2.85088 9.4133 2.58361 9.47118 2.29263C9.52906 2.00166 9.49935 1.70006 9.38582 1.42597C9.27229 1.15188 9.08003 0.917617 8.83336 0.752795C8.58668 0.587973 8.29667 0.499999 8 0.499999C7.60218 0.499999 7.22065 0.658035 6.93934 0.939339C6.65804 1.22064 6.5 1.60217 6.5 2Z" fill="#858585"/>
</svg>
